<svg width="2800" height="600" viewBox="0 0 2800 600" fill="none" xmlns="http://www.w3.org/2000/svg">
<rect x="2700" width="100" height="100" fill="#D9D9D9"/>
<rect x="2700" y="200" width="100" height="100" fill="#D9D9D9"/>
<rect x="2700" y="400" width="100" height="100" fill="#D9D9D9"/>
<rect x="2700" y="300" width="100" height="100" fill="#D9D9D9"/>
<path d="M2700 500H2800V600H2700V500Z" fill="#D9D9D9"/>
<rect x="2300" y="500" width="100" height="100" fill="#D9D9D9"/>
<rect x="2400" y="500" width="100" height="100" fill="#D9D9D9"/>
<rect x="2200" y="200" width="100" height="100" fill="#D9D9D9"/>
<rect x="2200" y="400" width="100" height="100" fill="#D9D9D9"/>
<rect x="2200" y="300" width="100" height="100" fill="#D9D9D9"/>
<rect x="2500" y="300" width="100" height="100" fill="#D9D9D9"/>
<rect x="2500" y="200" width="100" height="100" fill="#D9D9D9"/>
<path d="M2200 500H2300V600H2200V500Z" fill="#D9D9D9"/>
<rect x="2500" y="400" width="100" height="100" fill="#D9D9D9"/>
<rect x="1900" width="100" height="100" fill="#D9D9D9"/>
<rect x="1600" y="200" width="100" height="100" fill="#D9D9D9"/>
<rect x="2000" y="300" width="100" height="100" fill="#D9D9D9"/>
<rect x="1900" y="200" width="100" height="100" fill="#D9D9D9"/>
<rect x="1900" y="500" width="100" height="100" fill="#D9D9D9"/>
<rect x="1800" y="500" width="100" height="100" fill="#D9D9D9"/>
<rect x="1800" width="100" height="100" fill="#D9D9D9"/>
<rect x="2000" y="400" width="100" height="100" fill="#D9D9D9"/>
<rect x="1600" y="300" width="100" height="100" fill="#D9D9D9"/>
<rect x="1600" y="400" width="100" height="100" fill="#D9D9D9"/>
<rect x="1600" y="400" width="100" height="100" fill="#D9D9D9"/>
<rect x="1600" y="100" width="100" height="100" fill="#D9D9D9"/>
<rect x="1700" width="100" height="100" fill="#D9D9D9"/>
<rect x="1700" y="500" width="100" height="100" fill="#D9D9D9"/>
<rect x="1800" y="200" width="100" height="100" fill="#D9D9D9"/>
<rect x="1200" y="200" width="100" height="100" fill="#D9D9D9"/>
<rect x="1300" y="200" width="100" height="100" fill="#D9D9D9"/>
<rect x="1100" y="200" width="100" height="100" fill="#D9D9D9"/>
<rect x="1100" y="400" width="100" height="100" fill="#D9D9D9"/>
<rect x="1100" y="300" width="100" height="100" fill="#D9D9D9"/>
<rect x="1400" y="300" width="100" height="100" fill="#D9D9D9"/>
<path d="M1100 500H1200V600H1100V500Z" fill="#D9D9D9"/>
<rect x="1400" y="400" width="100" height="100" fill="#D9D9D9"/>
<rect x="1400" y="500" width="100" height="100" fill="#D9D9D9"/>
<rect x="700" y="100" width="100" height="100" fill="#D9D9D9"/>
<rect x="800" y="100" width="100" height="100" fill="#D9D9D9"/>
<rect x="900" y="200" width="100" height="100" fill="#D9D9D9"/>
<rect x="600" y="200" width="100" height="100" fill="#D9D9D9"/>
<rect x="700" y="300" width="100" height="100" fill="#D9D9D9"/>
<rect x="600" y="400" width="100" height="100" fill="#D9D9D9"/>
<rect x="600" y="300" width="100" height="100" fill="#D9D9D9"/>
<rect x="800" y="300" width="100" height="100" fill="#D9D9D9"/>
<path d="M700 500H800V600H700V500Z" fill="#D9D9D9"/>
<rect x="800" y="500" width="100" height="100" fill="#D9D9D9"/>
<rect x="900" y="500" width="100" height="100" fill="#D9D9D9"/>
<rect x="300" y="100" width="100" height="100" fill="#D9D9D9"/>
<rect x="200" y="200" width="100" height="100" fill="#D9D9D9"/>
<rect x="300" y="300" width="100" height="100" fill="#D9D9D9"/>
<rect x="400" width="100" height="100" fill="#D9D9D9"/>
<rect x="400" y="400" width="100" height="100" fill="#D9D9D9"/>
<rect x="100" y="300" width="100" height="100" fill="#D9D9D9"/>
<rect y="400" width="100" height="100" fill="#D9D9D9"/>
<rect y="400" width="100" height="100" fill="#D9D9D9"/>
<rect x="100" y="100" width="100" height="100" fill="#D9D9D9"/>
<rect width="100" height="100" fill="#D9D9D9"/>
<rect x="400" y="500" width="100" height="100" fill="#D9D9D9"/>
<rect y="500" width="100" height="100" fill="#D9D9D9"/>
</svg>
